HIERARCHY
ROOT hip
{
  OFFSET 0 90.174 2.4664
  CHANNELS 6 Xposition Yposition Zposition Zrotation Xrotation Yrotation
  JOINT abdomen
  {
    OFFSET 0 -1.186 -1.5018
    CHANNELS 6 Xposition Yposition Zposition Zrotation Xrotation Yrotation
    JOINT abdomen2
    {
      OFFSET 0 9.964 0.2134
      CHANNELS 6 Xposition Yposition Zposition Zrotation Xrotation Yrotation
      JOINT chest
      {
        OFFSET 0 13.134 -3.2573
        CHANNELS 6 Xposition Yposition Zposition Zrotation Xrotation Yrotation
        JOINT neck
        {
          OFFSET 0 20.686 -1.6905
          CHANNELS 6 Xposition Yposition Zposition Zrotation Xrotation Yrotation
          JOINT head
          {
            OFFSET 0 7.238 -0.1237
            CHANNELS 6 Xposition Yposition Zposition Zrotation Xrotation Yrotation
            End Site
            {
              OFFSET 0 0 0
            }
          }
        }
        JOINT lCollar
        {
          OFFSET 1.7069 20.075 5.0056
          CHANNELS 6 Xposition Yposition Zposition Zrotation Xrotation Yrotation
          JOINT lShldr
          {
            OFFSET 13.6458 -0.047 -4.849
            CHANNELS 6 Xposition Yposition Zposition Zrotation Xrotation Yrotation
            JOINT lForeArm
            {
              OFFSET 28.3255 -0.9759 2.2888
              CHANNELS 6 Xposition Yposition Zposition Zrotation Xrotation Yrotation
              JOINT lHand
              {
                OFFSET 22.1583 -0.53 10.8316
                CHANNELS 6 Xposition Yposition Zposition Zrotation Xrotation Yrotation
                JOINT lThumb1
                {
                  OFFSET 0.786 0.112 2.5817
                  CHANNELS 6 Xposition Yposition Zposition Zrotation Xrotation Yrotation
                  JOINT lThumb2
                  {
                    OFFSET 0.3601 -0.878 4.2331
                    CHANNELS 6 Xposition Yposition Zposition Zrotation Xrotation Yrotation
                    JOINT lThumb2_End
                    {
                      OFFSET 1.8127 -1.216 2.2227
                      CHANNELS 6 Xposition Yposition Zposition Zrotation Xrotation Yrotation
                      End Site
                      {
                        OFFSET 0.0181 -0.0122 0.0222
                      }
                    }
                  }
                }
                JOINT lCarpal1
                {
                  OFFSET 0.9571 1.114 1.7695
                  CHANNELS 6 Xposition Yposition Zposition Zrotation Xrotation Yrotation
                  JOINT lIndex1
                  {
                    OFFSET 4.1246 0.487 4.1451
                    CHANNELS 6 Xposition Yposition Zposition Zrotation Xrotation Yrotation
                    JOINT lIndex2
                    {
                      OFFSET 3.4052 -1.454 2.7682
                      CHANNELS 6 Xposition Yposition Zposition Zrotation Xrotation Yrotation
                      JOINT lIndex2_End
                      {
                        OFFSET 1.4531 -1.795 1.2713
                        CHANNELS 6 Xposition Yposition Zposition Zrotation Xrotation Yrotation
                        End Site
                        {
                          OFFSET 0.0145 -0.0179 0.0127
                        }
                      }
                    }
                  }
                  JOINT lMid1
                  {
                    OFFSET 5.6954 0.21 2.1184
                    CHANNELS 6 Xposition Yposition Zposition Zrotation Xrotation Yrotation
                    JOINT lMid2
                    {
                      OFFSET 3.9766 -1.54 2.3863
                      CHANNELS 6 Xposition Yposition Zposition Zrotation Xrotation Yrotation
                      JOINT lMid2_End
                      {
                        OFFSET 1.4042 -1.926 1.125
                        CHANNELS 6 Xposition Yposition Zposition Zrotation Xrotation Yrotation
                        End Site
                        {
                          OFFSET 0.014 -0.0193 0.0113
                        }
                      }
                    }
                  }
                }
                JOINT lCarpal2
                {
                  OFFSET 2.0956 0.66 -0.3894
                  CHANNELS 6 Xposition Yposition Zposition Zrotation Xrotation Yrotation
                  JOINT lRing1
                  {
                    OFFSET 5.0395 -0.09 2.4971
                    CHANNELS 6 Xposition Yposition Zposition Zrotation Xrotation Yrotation
                    JOINT lRing2
                    {
                      OFFSET 3.7921 -1.552 1.4806
                      CHANNELS 6 Xposition Yposition Zposition Zrotation Xrotation Yrotation
                      JOINT lRing2_End
                      {
                        OFFSET 1.4655 -1.808 0.9609
                        CHANNELS 6 Xposition Yposition Zposition Zrotation Xrotation Yrotation
                        End Site
                        {
                          OFFSET 0.0147 -0.0181 0.0096
                        }
                      }
                    }
                  }
                  JOINT lPinky1
                  {
                    OFFSET 4.9141 -1.269 0.3591
                    CHANNELS 6 Xposition Yposition Zposition Zrotation Xrotation Yrotation
                    JOINT lPinky2
                    {
                      OFFSET 3.1477 -1.685 0.8462
                      CHANNELS 6 Xposition Yposition Zposition Zrotation Xrotation Yrotation
                      JOINT lPinky2_End
                      {
                        OFFSET 0.8055 -1.585 0.7955
                        CHANNELS 6 Xposition Yposition Zposition Zrotation Xrotation Yrotation
                        End Site
                        {
                          OFFSET 0.0081 -0.0158 0.008
                        }
                      }
                    }
                  }
                }
              }
            }
          }
        }
        JOINT rCollar
        {
          OFFSET -1.7069 20.075 5.0056
          CHANNELS 6 Xposition Yposition Zposition Zrotation Xrotation Yrotation
          JOINT rShldr
          {
            OFFSET -13.6458 -0.047 -4.849
            CHANNELS 6 Xposition Yposition Zposition Zrotation Xrotation Yrotation
            JOINT rForeArm
            {
              OFFSET -28.3255 -0.9759 2.2888
              CHANNELS 6 Xposition Yposition Zposition Zrotation Xrotation Yrotation
              JOINT rHand
              {
                OFFSET -22.1583 -0.53 10.8316
                CHANNELS 6 Xposition Yposition Zposition Zrotation Xrotation Yrotation
                JOINT rThumb1
                {
                  OFFSET -0.786 0.112 2.5817
                  CHANNELS 6 Xposition Yposition Zposition Zrotation Xrotation Yrotation
                  JOINT rThumb2
                  {
                    OFFSET -0.3601 -0.878 4.2331
                    CHANNELS 6 Xposition Yposition Zposition Zrotation Xrotation Yrotation
                    JOINT rThumb2_End
                    {
                      OFFSET -1.8127 -1.216 2.2227
                      CHANNELS 6 Xposition Yposition Zposition Zrotation Xrotation Yrotation
                      End Site
                      {
                        OFFSET -0.0181 -0.0122 0.0222
                      }
                    }
                  }
                }
                JOINT rCarpal1
                {
                  OFFSET -0.9571 1.114 1.7695
                  CHANNELS 6 Xposition Yposition Zposition Zrotation Xrotation Yrotation
                  JOINT rIndex1
                  {
                    OFFSET -4.1246 0.487 4.1451
                    CHANNELS 6 Xposition Yposition Zposition Zrotation Xrotation Yrotation
                    JOINT rIndex2
                    {
                      OFFSET -3.4052 -1.454 2.7682
                      CHANNELS 6 Xposition Yposition Zposition Zrotation Xrotation Yrotation
                      JOINT rIndex2_End
                      {
                        OFFSET -1.4531 -1.795 1.2713
                        CHANNELS 6 Xposition Yposition Zposition Zrotation Xrotation Yrotation
                        End Site
                        {
                          OFFSET -0.0145 -0.018 0.0127
                        }
                      }
                    }
                  }
                  JOINT rMid1
                  {
                    OFFSET -5.6954 0.21 2.1184
                    CHANNELS 6 Xposition Yposition Zposition Zrotation Xrotation Yrotation
                    JOINT rMid2
                    {
                      OFFSET -3.9766 -1.54 2.3863
                      CHANNELS 6 Xposition Yposition Zposition Zrotation Xrotation Yrotation
                      JOINT rMid2_End
                      {
                        OFFSET -1.4042 -1.926 1.125
                        CHANNELS 6 Xposition Yposition Zposition Zrotation Xrotation Yrotation
                        End Site
                        {
                          OFFSET -0.014 -0.0193 0.0113
                        }
                      }
                    }
                  }
                }
                JOINT rCarpal2
                {
                  OFFSET -2.0956 0.66 -0.3894
                  CHANNELS 6 Xposition Yposition Zposition Zrotation Xrotation Yrotation
                  JOINT rRing1
                  {
                    OFFSET -5.0395 -0.09 2.4971
                    CHANNELS 6 Xposition Yposition Zposition Zrotation Xrotation Yrotation
                    JOINT rRing2
                    {
                      OFFSET -3.7921 -1.552 1.4806
                      CHANNELS 6 Xposition Yposition Zposition Zrotation Xrotation Yrotation
                      JOINT rRing2_End
                      {
                        OFFSET -1.4655 -1.808 0.9609
                        CHANNELS 6 Xposition Yposition Zposition Zrotation Xrotation Yrotation
                        End Site
                        {
                          OFFSET -0.0147 -0.0181 0.0096
                        }
                      }
                    }
                  }
                  JOINT rPinky1
                  {
                    OFFSET -4.9141 -1.269 0.3592
                    CHANNELS 6 Xposition Yposition Zposition Zrotation Xrotation Yrotation
                    JOINT rPinky2
                    {
                      OFFSET -3.1477 -1.685 0.8462
                      CHANNELS 6 Xposition Yposition Zposition Zrotation Xrotation Yrotation
                      JOINT rPinky2_End
                      {
                        OFFSET -0.8055 -1.585 0.7955
                        CHANNELS 6 Xposition Yposition Zposition Zrotation Xrotation Yrotation
                        End Site
                        {
                          OFFSET -0.0081 -0.0158 0.008
                        }
                      }
                    }
                  }
                }
              }
            }
          }
        }
      }
    }
  }
  JOINT lThigh
  {
    OFFSET 8.367 -8.2066 0.5982
    CHANNELS 6 Xposition Yposition Zposition Zrotation Xrotation Yrotation
    JOINT lShin
    {
      OFFSET 2.1923 -43.463 -0.4932
      CHANNELS 6 Xposition Yposition Zposition Zrotation Xrotation Yrotation
      JOINT lFoot
      {
        OFFSET 0.7333 -45.8593 -2.6451
        CHANNELS 6 Xposition Yposition Zposition Zrotation Xrotation Yrotation
        End Site
        {
          OFFSET 2.6618 -4.2699 12.3931
        }
      }
    }
  }
  JOINT rThigh
  {
    OFFSET -8.367 -8.2066 0.5982
    CHANNELS 6 Xposition Yposition Zposition Zrotation Xrotation Yrotation
    JOINT rShin
    {
      OFFSET -2.1923 -43.463 -0.4931
      CHANNELS 6 Xposition Yposition Zposition Zrotation Xrotation Yrotation
      JOINT rFoot
      {
        OFFSET -0.7333 -45.8593 -2.6451
        CHANNELS 6 Xposition Yposition Zposition Zrotation Xrotation Yrotation
        End Site
        {
          OFFSET -2.6618 -4.2699 12.3931
        }
      }
    }
  }
}
MOTION
Frames:	4
Frame Time:	0.0333333
0 90.174 2.4664 0 0 -0 0 -1.186 -1.5018 0 0 -0 0 9.964 0.2134 0 0 -0 0 13.134 -3.2573 0 0 -0 0 20.686 -1.6905 0 0 -0 0 7.238 -0.1237 0 0 -0 1.7069 20.075 5.0056 0 0 -0 13.6458 -0.047 -4.849 1.66051 0.0835086 5.75766 28.3255 -0.9759 2.2888 -0.0175111 0.895433 15.7816 22.1583 -0.53 10.8316 7.95139e-016 -1.98785e-016 -0 0.786 0.112 2.5817 5.46658e-016 -3.97569e-016 -0 0.3601 -0.878 4.2331 5.96354e-016 0 -0 1.8127 -1.216 2.2227 3.97569e-016 1.98785e-016 9.54166e-015 0.9571 1.114 1.7695 1.49089e-016 -3.97569e-016 -0 4.1246 0.487 4.1451 6.4605e-016 0 3.18055e-015 3.4052 -1.454 2.7682 5.96354e-016 0 3.18055e-015 1.4531 -1.795 1.2713 8.94531e-016 -1.98785e-016 6.36111e-015 5.6954 0.21 2.1184 6.4605e-016 0 3.18055e-015 3.9766 -1.54 2.3863 5.96354e-016 0 3.18055e-015 1.4042 -1.926 1.125 8.94531e-016 -1.98785e-016 6.36111e-015 2.0956 0.66 -0.3894 1.49089e-016 -3.97569e-016 -0 5.0395 -0.09 2.4971 6.4605e-016 0 3.18055e-015 3.7921 -1.552 1.4806 5.96354e-016 0 3.18055e-015 1.4655 -1.808 0.9609 8.94531e-016 -1.98785e-016 6.36111e-015 4.9141 -1.269 0.3591 6.4605e-016 0 3.18055e-015 3.1477 -1.685 0.8462 5.96354e-016 0 3.18055e-015 0.8055 -1.585 0.7955 8.94531e-016 -1.98785e-016 6.36111e-015 -1.7069 20.075 5.0056 0 0 -0 -13.6458 -0.047 -4.849 -1.4496 0.0636048 -5.0245 -28.3255 -0.9759 2.2888 -1.74811 1.20616 -16.8394 -22.1583 -0.53 10.8316 -1.19271e-015 1.98785e-016 -3.18055e-015 -0.786 0.112 2.5817 -3.97569e-016 1.98785e-016 -3.18055e-015 -0.3601 -0.878 4.2331 -2.98177e-016 1.98785e-016 -3.18055e-015 -1.8127 -1.216 2.2227 -2.98177e-016 3.97569e-016 -0 -0.9571 1.114 1.7695 4.96962e-016 0 -6.36111e-015 -4.1246 0.487 4.1451 -9.93923e-017 3.97569e-016 -0 -3.4052 -1.454 2.7682 -8.94531e-016 5.96354e-016 -0 -1.4531 -1.795 1.2713 -3.97569e-016 3.97569e-016 -0 -5.6954 0.21 2.1184 -9.93923e-017 3.97569e-016 -0 -3.9766 -1.54 2.3863 -8.94531e-016 5.96354e-016 -0 -1.4042 -1.926 1.125 -3.97569e-016 3.97569e-016 -0 -2.0956 0.66 -0.3894 4.96962e-016 0 -6.36111e-015 -5.0395 -0.09 2.4971 -9.93923e-017 3.97569e-016 -0 -3.7921 -1.552 1.4806 -8.94531e-016 5.96354e-016 -0 -1.4655 -1.808 0.9609 -3.97569e-016 3.97569e-016 -0 -4.9141 -1.269 0.3592 -9.93923e-017 3.97569e-016 -0 -3.1477 -1.685 0.8462 -8.94531e-016 5.96354e-016 -0 -0.8055 -1.585 0.7955 -3.97569e-016 3.97569e-016 -0 8.367 -8.2066 0.5982 -4.66115 -1.03232 0.120763 2.1923 -43.463 -0.4932 0.00990601 1.55097 0.177175 0.7333 -45.8593 -2.6451 4.65196 -0.54114 -0.255042 -8.367 -8.2066 0.5982 4.66115 -1.03222 -0.120763 -2.1923 -43.463 -0.4931 -0.00990459 1.5509 -0.177176 -0.7333 -45.8593 -2.6451 -4.65196 -0.541171 0.255041 
4.73783 53.7214 -24.3007 0 0 -0 0 -1.186 -1.5018 0.2205 0.297154 -1.488 8.88178e-016 9.964 0.2134 0.448652 0.58848 -2.97719 -4.44089e-016 13.134 -3.2573 0.448652 0.58848 -2.9772 -1.33227e-015 20.686 -1.6905 4.49996 -8.99759e-005 -10.125 1.77636e-015 7.238 -0.1237 0.0145269 -0.0072859 -11.8596 1.7069 20.075 5.0056 -10.6677 -0.579048 -7.30985 13.6458 -0.047 -4.849 -18.5807 -15.7521 -0.203151 28.3255 -0.9759 2.2888 -5.32434 2.88972 -18.1708 22.1583 -0.53 10.8316 -15.9663 7.09958 -3.88971 0.786 0.112 2.5817 -3.76442e-006 1.11887e-006 1.151e-006 0.3601 -0.878 4.2331 -3.34487e-007 -3.80789e-007 -1.88707e-006 1.8127 -1.216 2.2227 -3.17092e-006 -7.57247e-007 4.70833e-006 0.9571 1.114 1.7695 -4.77083e-015 1.59028e-015 -3.18055e-015 4.1246 0.487 4.1451 -3.76442e-006 1.11887e-006 1.151e-006 3.4052 -1.454 2.7682 -3.34487e-007 -3.80789e-007 -1.88707e-006 1.4531 -1.795 1.2713 -3.17092e-006 -7.57247e-007 4.70833e-006 5.6954 0.21 2.1184 -3.76442e-006 1.11887e-006 1.151e-006 3.9766 -1.54 2.3863 -3.34487e-007 -3.80789e-007 -1.88707e-006 1.4042 -1.926 1.125 -3.17092e-006 -7.57247e-007 4.70833e-006 2.0956 0.66 -0.3894 -4.77083e-015 1.59028e-015 -3.18055e-015 5.0395 -0.09 2.4971 -3.76442e-006 1.11887e-006 1.151e-006 3.7921 -1.552 1.4806 -3.34487e-007 -3.80789e-007 -1.88707e-006 1.4655 -1.808 0.9609 -3.17092e-006 -7.57247e-007 4.70833e-006 4.9141 -1.269 0.3591 -3.76442e-006 1.11887e-006 1.151e-006 3.1477 -1.685 0.8462 -3.34487e-007 -3.80789e-007 -1.88707e-006 0.8055 -1.585 0.7955 -3.17092e-006 -7.57247e-007 4.70833e-006 -1.7069 20.075 5.0056 20.2881 1.88001 13.1196 -13.6458 -0.047 -4.849 5.69536 -0.536792 -7.85757 -28.3255 -0.9759 2.2888 7.97191 -0.240331 6.70351 -22.1583 -0.53 10.8316 9.53568 4.03478 5.12911 -0.786 0.112 2.5817 -4.57205e-015 -2.38542e-015 1.59028e-015 -0.3601 -0.878 4.2331 8.05078e-015 0 3.18055e-015 -1.8127 -1.216 2.2227 5.26779e-015 -2.38542e-015 -1.59028e-015 -0.9571 1.114 1.7695 -1.08338e-014 0 -1.59028e-015 -4.1246 0.487 4.1451 -5.06901e-015 2.38542e-015 9.54166e-015 -3.4052 -1.454 2.7682 4.47266e-015 0 1.59028e-015 -1.4531 -1.795 1.2713 7.7526e-015 0 3.18055e-015 -5.6954 0.21 2.1184 -5.06901e-015 2.38542e-015 9.54166e-015 -3.9766 -1.54 2.3863 4.47266e-015 0 1.59028e-015 -1.4042 -1.926 1.125 7.7526e-015 0 3.18055e-015 -2.0956 0.66 -0.3894 -1.08338e-014 0 -1.59028e-015 -5.0395 -0.09 2.4971 -5.06901e-015 2.38542e-015 9.54166e-015 -3.7921 -1.552 1.4806 4.47266e-015 0 1.59028e-015 -1.4655 -1.808 0.9609 7.7526e-015 0 3.18055e-015 -4.9141 -1.269 0.3592 -5.06901e-015 2.38542e-015 9.54166e-015 -3.1477 -1.685 0.8462 4.47266e-015 0 1.59028e-015 -0.8055 -1.585 0.7955 7.7526e-015 0 3.18055e-015 8.367 -8.2066 0.5982 -1.60816 -31.0721 4.81876 2.1923 -43.463 -0.4932 8.15083 81.4637 -7.73815 0.7333 -45.8593 -2.6451 8.69518 34.3079 1.70968 -8.367 -8.2066 0.5982 1.56523 -31.0575 -4.87024 -2.1923 -43.463 -0.4931 -8.29901 81.4583 7.92694 -0.7333 -45.8593 -2.6451 -8.69929 34.6236 -1.6896 
8.42609 24.8305 -45.6876 0 0 -0 0 -1.186 -1.5018 0.41851 0.537532 -2.64351 -8.88178e-016 9.964 0.2134 0.861423 1.05517 -5.29121 -1.77636e-015 13.134 -3.2573 0.861423 1.05517 -5.29121 1.77636e-015 20.686 -1.6905 7.99983 -0.000143435 -18.0001 3.55271e-015 7.238 -0.1237 -1.32533e-006 5.33262e-007 -21.0003 1.7069 20.075 5.0056 -19.0661 -1.01126 -12.9967 13.6458 -0.047 -4.849 -36.9441 -27.7048 -5.80295 28.3255 -0.9759 2.2888 -8.41952 2.5448 -44.5281 22.1583 -0.53 10.8316 -28.5622 12.3205 -5.72131 0.786 0.112 2.5817 6.36111e-015 1.59028e-015 -3.18055e-015 0.3601 -0.878 4.2331 1.62556e-006 2.97835e-006 6.01169e-006 1.8127 -1.216 2.2227 -3.18055e-015 0 -0 0.9571 1.114 1.7695 -2.20695e-031 -3.97569e-015 -3.18055e-015 4.1246 0.487 4.1451 6.36111e-015 1.59028e-015 9.54166e-015 3.4052 -1.454 2.7682 1.62556e-006 2.97835e-006 6.01169e-006 1.4531 -1.795 1.2713 -5.29669e-031 9.54166e-015 3.18055e-015 5.6954 0.21 2.1184 6.36111e-015 1.59028e-015 9.54166e-015 3.9766 -1.54 2.3863 1.62556e-006 2.97835e-006 6.01169e-006 1.4042 -1.926 1.125 -5.29669e-031 9.54166e-015 3.18055e-015 2.0956 0.66 -0.3894 -2.20695e-031 -3.97569e-015 -3.18055e-015 5.0395 -0.09 2.4971 6.36111e-015 1.59028e-015 9.54166e-015 3.7921 -1.552 1.4806 1.62556e-006 2.97835e-006 6.01169e-006 1.4655 -1.808 0.9609 -5.29669e-031 9.54166e-015 3.18055e-015 4.9141 -1.269 0.3591 6.36111e-015 1.59028e-015 9.54166e-015 3.1477 -1.685 0.8462 1.62556e-006 2.97835e-006 6.01169e-006 0.8055 -1.585 0.7955 -5.29669e-031 9.54166e-015 3.18055e-015 -1.7069 20.075 5.0056 35.4871 3.15131 23.3484 -13.6458 -0.047 -4.849 11.2092 -1.00085 -10.0616 -28.3255 -0.9759 2.2888 16.38 -1.00848 24.9284 -22.1583 -0.53 10.8316 16.9644 7.10609 8.68019 -0.786 0.112 2.5817 7.49762e-007 4.20864e-006 4.92376e-006 -0.3601 -0.878 4.2331 -5.08262e-007 -1.23094e-006 1.05216e-006 -1.8127 -1.216 2.2227 -1.33381e-007 8.73377e-007 3.51404e-006 -0.9571 1.114 1.7695 7.95139e-016 3.18055e-015 6.36111e-015 -4.1246 0.487 4.1451 7.49762e-007 4.20864e-006 4.92376e-006 -3.4052 -1.454 2.7682 -5.08262e-007 -1.23094e-006 1.05216e-006 -1.4531 -1.795 1.2713 -1.33381e-007 8.73377e-007 3.51404e-006 -5.6954 0.21 2.1184 7.49762e-007 4.20864e-006 4.92376e-006 -3.9766 -1.54 2.3863 -5.08262e-007 -1.23094e-006 1.05216e-006 -1.4042 -1.926 1.125 -1.33381e-007 8.73377e-007 3.51404e-006 -2.0956 0.66 -0.3894 7.95139e-016 3.18055e-015 6.36111e-015 -5.0395 -0.09 2.4971 7.49762e-007 4.20864e-006 4.92376e-006 -3.7921 -1.552 1.4806 -5.08262e-007 -1.23094e-006 1.05216e-006 -1.4655 -1.808 0.9609 -1.33381e-007 8.73377e-007 3.51404e-006 -4.9141 -1.269 0.3592 7.49762e-007 4.20864e-006 4.92376e-006 -3.1477 -1.685 0.8462 -5.08262e-007 -1.23094e-006 1.05216e-006 -0.8055 -1.585 0.7955 -1.33381e-007 8.73377e-007 3.51404e-006 8.367 -8.2066 0.5982 3.46802 -59.2898 19.0621 2.1923 -43.463 -0.4932 172.311 35.1517 -165.134 0.7333 -45.8593 -2.6451 3.7986 66.236 11.4687 -8.367 -8.2066 0.5982 -3.57621 -59.3075 -19.164 -2.1923 -43.463 -0.4931 -172.207 35.1016 165.069 -0.7333 -45.8593 -2.6451 -3.57305 66.8056 -11.6359 
8.95441 20.9196 -48.7952 0 0 -0 0 -1.186 -1.5018 0.448676 0.572418 -2.80845 -8.88178e-016 9.964 0.2134 0.92493 1.12214 -5.6217 -8.88178e-016 13.134 -3.2573 0.924931 1.12214 -5.62171 0 20.686 -1.6905 8.49987 -0.000133269 -19.1251 -3.55271e-015 7.238 -0.1237 -0.0929258 0.0485547 -21.9846 1.7069 20.075 5.0056 -20.273 -1.07085 -13.8092 13.6458 -0.047 -4.849 -39.7945 -29.3638 -6.73107 28.3255 -0.9759 2.2888 -8.86804 2.32109 -48.2791 22.1583 -0.53 10.8316 -30.3871 13.0295 -5.89884 0.786 0.112 2.5817 -3.18055e-015 -2.38542e-015 7.95139e-016 0.3601 -0.878 4.2331 -1.27222e-014 -1.27222e-014 6.36111e-015 1.8127 -1.216 2.2227 -6.36111e-015 -1.03368e-014 7.95139e-016 0.9571 1.114 1.7695 6.36111e-015 3.18055e-015 -0 4.1246 0.487 4.1451 -1.27222e-014 1.90833e-014 1.51076e-014 3.4052 -1.454 2.7682 -1.59028e-014 3.97569e-015 6.36111e-015 1.4531 -1.795 1.2713 -1.59028e-014 -1.27222e-014 -2.38542e-015 5.6954 0.21 2.1184 -1.27222e-014 1.90833e-014 1.51076e-014 3.9766 -1.54 2.3863 -1.59028e-014 3.97569e-015 6.36111e-015 1.4042 -1.926 1.125 -1.59028e-014 -1.27222e-014 -2.38542e-015 2.0956 0.66 -0.3894 6.36111e-015 3.18055e-015 -0 5.0395 -0.09 2.4971 -1.27222e-014 1.90833e-014 1.51076e-014 3.7921 -1.552 1.4806 -1.59028e-014 3.97569e-015 6.36111e-015 1.4655 -1.808 0.9609 -1.59028e-014 -1.27222e-014 -2.38542e-015 4.9141 -1.269 0.3591 -1.27222e-014 1.90833e-014 1.51076e-014 3.1477 -1.685 0.8462 -1.59028e-014 3.97569e-015 6.36111e-015 0.8055 -1.585 0.7955 -1.59028e-014 -1.27222e-014 -2.38542e-015 -1.7069 20.075 5.0056 37.6201 3.31043 24.8122 -13.6458 -0.047 -4.849 11.9938 -1.06678 -10.3765 -28.3255 -0.9759 2.2888 17.6298 -1.07461 27.526 -22.1583 -0.53 10.8316 18.0295 7.53657 9.15637 -0.786 0.112 2.5817 1.59028e-015 1.59028e-015 -1.27222e-014 -0.3601 -0.878 4.2331 1.59028e-015 3.18055e-015 -6.36111e-015 -1.8127 -1.216 2.2227 4.77083e-015 1.59028e-015 -3.18055e-015 -0.9571 1.114 1.7695 3.53113e-031 3.18055e-015 -6.36111e-015 -4.1246 0.487 4.1451 -1.41245e-030 6.36111e-015 1.27222e-014 -3.4052 -1.454 2.7682 3.18055e-015 3.18055e-015 -9.54166e-015 -1.4531 -1.795 1.2713 3.18055e-015 -1.59028e-015 -1.90833e-014 -5.6954 0.21 2.1184 -1.41245e-030 6.36111e-015 1.27222e-014 -3.9766 -1.54 2.3863 3.18055e-015 3.18055e-015 -9.54166e-015 -1.4042 -1.926 1.125 3.18055e-015 -1.59028e-015 -1.90833e-014 -2.0956 0.66 -0.3894 3.53113e-031 3.18055e-015 -6.36111e-015 -5.0395 -0.09 2.4971 -1.41245e-030 6.36111e-015 1.27222e-014 -3.7921 -1.552 1.4806 3.18055e-015 3.18055e-015 -9.54166e-015 -1.4655 -1.808 0.9609 3.18055e-015 -1.59028e-015 -1.90833e-014 -4.9141 -1.269 0.3592 -1.41245e-030 6.36111e-015 1.27222e-014 -3.1477 -1.685 0.8462 3.18055e-015 3.18055e-015 -9.54166e-015 -0.8055 -1.585 0.7955 3.18055e-015 -1.59028e-015 -1.90833e-014 8.367 -8.2066 0.5982 5.57339 -65.7961 26.8379 2.1923 -43.463 -0.4932 172.264 26.0247 -161.363 0.7333 -45.8593 -2.6451 -5.27381 73.2193 21.4102 -8.367 -8.2066 0.5982 -5.71443 -65.8432 -26.9537 -2.1923 -43.463 -0.4931 -172.162 25.939 161.322 -0.7333 -45.8593 -2.6451 6.01986 73.8073 -22.0617 
